# xmcd
# 
# Track frame offsets:
#     150
#     7815
#     21382
#     36362
#     51630
#     63982
#     87070
#     99507
#     116912
#     134570
#     147352
#     167195
#     183625
#     202900
# 
# Disc length: 2884
# 
# Revision: 10
# Processed by: cddbd v1.5.2PL0 Copyright (c) Steve Scherf et al.
# Submitted via: BonkEnc v1.0.8
# 
DISCID=cb0b420e
DTITLE=Cat Stevens - Footsteps in the Dark: Greatest Hits Vol. 2
DYEAR=1984
DGENRE=Rock
TTITLE0=The Wind
TTITLE1=(I Never Wanted) to Be a Star
TTITLE2=Katmandu
TTITLE3=I Want to Live in a Wigwam
TTITLE4=Trouble
TTITLE5=On the Road to Find Out
TTITLE6=If You Want to Sing Out, Sing Out
TTITLE7=Where Do the Children Play?
TTITLE8=Daytime
TTITLE9=Don't Be Shy
TTITLE10=How Can I Tell You
TTITLE11=Father and Son
TTITLE12=The Hurt
TTITLE13=Silent Sunlight
EXTD=YEAR: 1984
EXTT0=
EXTT1=
EXTT2=
EXTT3=
EXTT4=
EXTT5=
EXTT6=
EXTT7=
EXTT8=
EXTT9=
EXTT10=
EXTT11=
EXTT12=
EXTT13=
PLAYORDER=
